HIERARCHY
ROOT Hips
{
	OFFSET 0.000000 0.000000 0.000000
	CHANNELS 6 Xposition Yposition Zposition Zrotation Yrotation Xrotation 
	JOINT LeftUpLeg_virtual
	{
		OFFSET 0.000000 0.000000 0.000000
		CHANNELS 3 Zrotation Yrotation Xrotation
		JOINT LeftUpLeg
		{
			OFFSET 8.479694 -4.795517 -0.379053
			CHANNELS 3 Zrotation Yrotation Xrotation
			JOINT LeftLeg
			{
				OFFSET 0.485052 -32.551468 0.112863
				CHANNELS 3 Zrotation Yrotation Xrotation
				JOINT LeftFoot
				{
					OFFSET 0.438033 -32.635670 -3.012641
					CHANNELS 3 Zrotation Yrotation Xrotation
					JOINT LeftToeBase
					{
						OFFSET 0.970169 -13.225353 11.864223
						CHANNELS 3 Zrotation Yrotation Xrotation
						End Site
						{
							OFFSET 0.000000 0.000000 0.000000
						}
					}
				}
			}
		}
	}
	JOINT RightUpLeg_virtual
	{
		OFFSET 0.000000 0.000000 0.000000
		CHANNELS 3 Zrotation Yrotation Xrotation
		JOINT RightUpLeg
		{
			OFFSET -8.479694 -4.795517 -0.379053
			CHANNELS 3 Zrotation Yrotation Xrotation
			JOINT RightLeg
			{
				OFFSET -0.484100 -32.551483 0.112903
				CHANNELS 3 Zrotation Yrotation Xrotation
				JOINT RightFoot
				{
					OFFSET -0.438985 -32.635651 -3.012681
					CHANNELS 3 Zrotation Yrotation Xrotation
					JOINT RightToeBase
					{
						OFFSET -0.970169 -13.225354 11.864223
						CHANNELS 3 Zrotation Yrotation Xrotation
						End Site
						{
							OFFSET 0.000000 0.000000 0.000000
						}
					}
				}
			}
		}
	}
	JOINT Spine_virtual
	{
		OFFSET 0.000000 0.000000 0.000000
		CHANNELS 3 Zrotation Yrotation Xrotation
		JOINT Spine
		{
			OFFSET 0.000000 7.722015 1.166203
			CHANNELS 3 Zrotation Yrotation Xrotation
			JOINT Spine1
			{
				OFFSET 0.000000 12.024086 0.248766
				CHANNELS 3 Zrotation Yrotation Xrotation
				JOINT Spine2
				{
					OFFSET -0.000000 11.503036 -0.491240
					CHANNELS 3 Zrotation Yrotation Xrotation
					JOINT Neck_virtual
					{
						OFFSET 0.000000 0.000000 0.000000
						CHANNELS 3 Zrotation Yrotation Xrotation
						JOINT Neck
						{
							OFFSET 0.000000 18.430687 -3.123054
							CHANNELS 3 Zrotation Yrotation Xrotation
							JOINT Head
							{
								OFFSET -0.000000 9.051071 1.034021
								CHANNELS 3 Zrotation Yrotation Xrotation
								End Site
								{
									OFFSET 0.000000 0.000000 0.000000
								}
							}
						}
					}
					JOINT LeftShoulder_virtual
					{
						OFFSET 0.000000 0.000000 0.000000
						CHANNELS 3 Zrotation Yrotation Xrotation
						JOINT LeftShoulder
						{
							OFFSET 6.197824 13.665230 -4.064723
							CHANNELS 3 Zrotation Yrotation Xrotation
							JOINT LeftArm
							{
								OFFSET 7.778132 -0.187073 -1.709282
								CHANNELS 3 Zrotation Yrotation Xrotation
								JOINT LeftForeArm
								{
									OFFSET 21.954697 0.000000 -2.041093
									CHANNELS 3 Zrotation Yrotation Xrotation
									JOINT LeftHand
									{
										OFFSET 22.992908 0.000000 -0.870901
										CHANNELS 3 Zrotation Yrotation Xrotation
										End Site
										{
											OFFSET 0.000000 0.000000 0.000000
										}
									}
								}
							}
						}
					}
					JOINT RightShoulder_virtual
					{
						OFFSET 0.000000 0.000000 0.000000
						CHANNELS 3 Zrotation Yrotation Xrotation
						JOINT RightShoulder
						{
							OFFSET -6.197824 13.665230 -4.064723
							CHANNELS 3 Zrotation Yrotation Xrotation
							JOINT RightArm
							{
								OFFSET -7.778132 -0.187073 -1.709282
								CHANNELS 3 Zrotation Yrotation Xrotation
								JOINT RightForeArm
								{
									OFFSET -21.954697 0.000000 -2.041093
									CHANNELS 3 Zrotation Yrotation Xrotation
									JOINT RightHand
									{
										OFFSET -22.992908 0.000000 -0.870901
										CHANNELS 3 Zrotation Yrotation Xrotation
										End Site
										{
											OFFSET 0.000000 0.000000 0.000000
										}
									}
								}
							}
						}
					}
				}
			}
		}
	}
}
MOTION
Frames: 4
Frame Time: 0.033333
9.953450 80.612564 -16.357224 179.961524 -9.773552 179.668290 -0.503610 2.258900 12.491369 4.434377 -4.657010 -24.168025 4.467681 2.643171 32.468609 0.932925 -6.691992 -12.200594 0.000000 0.000000 0.000000 3.278297 -0.401768 12.778431 -3.433004 4.291158 -19.629446 -0.354092 2.651724 32.906639 10.496974 3.865385 -15.961886 0.000000 0.000000 0.000000 4.602728 3.852636 0.221699 -0.861825 -3.223525 -8.199918 0.124322 -2.519467 8.991597 -0.011397 0.139902 0.003942 -0.161439 -0.842562 9.895341 0.698993 1.761108 -1.298861 0.000000 0.000000 0.000000 1.507315 -0.388660 6.999276 -14.007120 -7.371240 2.129830 -44.858903 -28.925967 0.148218 1.591896 -43.606431 2.656929 0.000000 0.000000 0.000000 -2.827088 1.085459 6.308622 29.582973 4.216549 6.786416 42.450264 16.811930 -0.526223 -0.893747 26.157447 -2.373445 0.000000 0.000000 0.000000 
9.793705 80.582687 -16.343992 179.867008 -9.247271 179.721566 -0.695353 2.401777 12.599069 4.393481 -4.326802 -23.818456 4.586838 2.860308 32.168432 1.049573 -6.403939 -11.624047 0.000000 0.000000 0.000000 3.230400 -1.075395 12.748102 -3.330086 3.813966 -19.705903 -0.332666 2.116788 33.260624 10.218766 3.513525 -16.550950 0.000000 0.000000 0.000000 4.482615 3.860643 0.274139 -0.804675 -3.165917 -8.076083 0.123084 -2.442557 9.042038 0.023531 0.209187 0.013193 -0.149089 -0.834915 9.937227 0.677987 1.768971 -1.321388 0.000000 0.000000 0.000000 1.536744 -0.323938 6.940085 -14.062023 -7.296342 2.200840 -45.407303 -28.512884 1.018811 1.657598 -42.966183 2.747396 0.000000 0.000000 0.000000 -2.830658 1.250429 6.369259 29.615345 4.107153 6.801440 42.513003 16.450577 -0.741487 -0.995341 25.658154 -2.346484 0.000000 0.000000 0.000000 
9.503542 80.516846 -16.383522 179.901951 -9.345553 179.724639 -0.869790 2.420255 12.713784 4.601297 -4.324258 -23.467176 4.580456 2.735655 31.699215 1.027691 -6.419282 -11.368583 0.000000 0.000000 0.000000 3.145400 -0.965875 12.899838 -3.416771 3.879948 -19.728213 -0.334949 2.097067 33.228088 10.336186 3.533149 -16.683514 0.000000 0.000000 0.000000 4.407881 3.862537 0.340278 -0.603748 -3.139428 -7.978359 0.162416 -2.424457 9.067715 0.058527 0.220409 0.073554 -0.234661 -1.029053 9.859541 0.733268 1.746361 -1.375808 0.000000 0.000000 0.000000 1.429589 -0.391516 6.949767 -14.088017 -7.353906 2.297373 -46.380242 -27.506883 2.531624 1.806746 -41.354111 2.852529 0.000000 0.000000 0.000000 -2.944797 1.130328 6.317951 29.576481 3.737209 6.717158 42.736562 15.490119 -1.269840 -1.023286 24.623628 -2.343484 0.000000 0.000000 0.000000 
9.122316 80.445168 -16.520306 179.946798 -9.702468 179.818322 -1.200867 2.285377 12.908877 5.029633 -4.480170 -23.229318 4.392482 2.240926 30.826228 0.870683 -6.795475 -11.326930 0.000000 0.000000 0.000000 3.030513 -0.835846 13.101759 -3.501008 3.933329 -19.712551 -0.347802 2.050486 33.140652 10.438029 3.455873 -16.813279 0.000000 0.000000 0.000000 4.332003 3.803670 0.326309 -0.350631 -3.185719 -7.966502 0.134944 -2.515101 9.019724 0.065743 0.152413 -0.028765 -0.240643 -1.055491 9.931946 0.812027 1.752188 -1.426804 0.000000 0.000000 0.000000 1.380367 -0.420850 7.021186 -14.107845 -7.277643 2.379514 -47.669273 -25.810272 4.228582 2.161480 -38.927898 2.927674 0.000000 0.000000 0.000000 -2.961061 1.148413 6.380189 29.382985 3.340591 6.787865 43.142330 14.084541 -1.909347 -1.192210 23.369421 -2.436136 0.000000 0.000000 0.000000 
